<svg width="18" height="12" viewBox="0 0 18 12" fill="none" xmlns="http://www.w3.org/2000/svg">
<path d="M2.66602 7.3335C3.2183 7.3335 3.66602 7.78121 3.66602 8.3335V10.3335C3.66584 10.8856 3.21819 11.3335 2.66602 11.3335H1.66602C1.11384 11.3335 0.666192 10.8856 0.666016 10.3335V8.3335C0.666016 7.78121 1.11373 7.3335 1.66602 7.3335H2.66602ZM7.33301 5.3335C7.88514 5.33367 8.33301 5.78132 8.33301 6.3335V10.3335C8.33283 10.8855 7.88503 11.3333 7.33301 11.3335H6.33301C5.78083 11.3335 5.33318 10.8856 5.33301 10.3335V6.3335C5.33301 5.78121 5.78072 5.3335 6.33301 5.3335H7.33301ZM11.999 2.99951C12.5512 2.99951 12.9988 3.44738 12.999 3.99951V10.3335C12.9988 10.8856 12.5512 11.3335 11.999 11.3335H10.999C10.447 11.3333 9.9992 10.8855 9.99902 10.3335V3.99951C9.9992 3.44748 10.447 2.99969 10.999 2.99951H11.999ZM16.666 0.666504C17.2183 0.666504 17.666 1.11422 17.666 1.6665V10.3335C17.6658 10.8856 17.2182 11.3335 16.666 11.3335H15.666C15.1138 11.3335 14.6662 10.8856 14.666 10.3335V1.6665C14.666 1.11422 15.1137 0.666504 15.666 0.666504H16.666Z" fill="#96A7AF"/>
</svg>
