<svg width="16" height="12" viewBox="0 0 16 12" fill="none" xmlns="http://www.w3.org/2000/svg">
<path d="M6.12012 8.73096C7.39569 7.65207 9.26447 7.65207 10.54 8.73096C10.6041 8.78898 10.6408 8.87113 10.6426 8.95752C10.6443 9.04398 10.6105 9.12741 10.5488 9.18799L8.55176 11.2036C8.49323 11.2628 8.41333 11.2964 8.33008 11.2964C8.24682 11.2964 8.16694 11.2628 8.1084 11.2036L6.11035 9.18799C6.04875 9.1274 6.01483 9.04391 6.0166 8.95752C6.01843 8.87107 6.05598 8.78894 6.12012 8.73096ZM3.45508 6.0415C6.20317 3.48546 10.4589 3.48551 13.207 6.0415C13.269 6.10136 13.3047 6.1839 13.3057 6.27002C13.3065 6.3562 13.2726 6.43931 13.2119 6.50049L12.0576 7.66748C11.9387 7.78658 11.7461 7.78924 11.624 7.67334C10.7216 6.85616 9.54753 6.40376 8.33008 6.40381C7.11339 6.40431 5.93996 6.85667 5.03809 7.67334C4.91601 7.78916 4.72343 7.78656 4.60449 7.66748L3.4502 6.50049C3.38952 6.43942 3.35563 6.35611 3.35645 6.27002C3.35738 6.1839 3.39311 6.10134 3.45508 6.0415ZM0.790039 3.35986C5.00516 -0.679307 11.6552 -0.679558 15.8701 3.35986C15.931 3.41981 15.9652 3.50195 15.9658 3.5874C15.9663 3.67296 15.9324 3.7552 15.8721 3.81592L14.7158 4.98291C14.5967 5.10239 14.4041 5.10363 14.2832 4.98584C12.6773 3.45911 10.5459 2.60804 8.33008 2.60791C6.11398 2.6079 3.98213 3.45896 2.37598 4.98584C2.25519 5.10383 2.0624 5.10261 1.94336 4.98291L0.787109 3.81592C0.726845 3.75515 0.692796 3.67298 0.693359 3.5874C0.693975 3.50189 0.729028 3.41978 0.790039 3.35986Z" fill="#96A7AF"/>
</svg>
